<?xml version="1.0" standalone="no"?><!DOCTYPE svg PUBLIC "-//W3C//DTD SVG 1.1//EN" "http://www.w3.org/Graphics/SVG/1.1/DTD/svg11.dtd"><svg t="1764906639200" class="icon" viewBox="0 0 4710 1024" version="1.1" xmlns="http://www.w3.org/2000/svg" p-id="7462" xmlns:xlink="http://www.w3.org/1999/xlink" width="919.921875" height="200"><path d="M1997.182971 496.087935a148.136692 148.136692 0 0 0 69.358008-54.407808c16.929908-24.643938 25.872722-53.929948 25.531393-83.693817 0-124.243677-89.564672-185.887655-212.443034-185.887655H1557.141905v675.626191h350.476393c107.859895 0 213.46702-74.409675 213.467021-188.072159a164.861802 164.861802 0 0 0-33.518487-102.671697 169.162544 169.162544 0 0 0-90.452127-60.893055z m-271.765977-183.771417h125.062866a61.985307 61.985307 0 0 1 46.898575 17.5443 60.073866 60.073866 0 0 1 17.749097 46.215917 62.121838 62.121838 0 0 1-20.547993 45.055399 64.169811 64.169811 0 0 1-47.308169 16.588579h-122.946628l1.092252-125.404195z m126.155118 394.098212H1726.440981V573.637834h121.854375c61.439181 0 90.588659 26.623645 90.588659 65.876455 0 48.878282-36.658711 66.900441-87.311903 66.900441zM2492.109705 155.032216c-198.448554 0-314.841669 156.192051-314.841669 353.75315 0 198.653351 116.461381 353.684884 314.841669 353.684884 199.609072 0 314.909935-155.099799 314.909935-353.684884 0-197.561099-115.369128-353.75315-314.909935-353.75315z m0 545.98952c-97.00564 0-145.542593-86.014853-145.542593-192.23637 0-106.221517 48.468687-191.144118 145.542593-191.144119 97.073906 0 146.566579 86.014853 146.566579 191.144119 0 107.313769-49.629205 192.304636-146.566579 192.304635zM3172.582766 437.584182l-23.688218-5.256464c-58.162425-11.673444-104.651405-26.555379-104.651405-67.992693 0-44.577539 44.23621-62.667964 83.079426-62.667965 26.487114 0.409595 52.564632 6.143918 76.662445 16.998174 24.166078 10.78599 45.738057 26.350582 63.487153 45.738057l106.767643-104.173545a319.552006 319.552006 0 0 0-112.979827-80.621858 324.057546 324.057546 0 0 0-137.145905-25.599659c-144.450341 0-254.49474 79.666138-254.49474 212.443034 0 121.103452 88.47242 180.562926 196.26405 202.885829l23.756483 5.324729c89.496407 18.02216 122.878362 31.811843 122.878362 74.341408 0 40.345062-36.590445 66.900441-92.704897 66.900442a217.767763 217.767763 0 0 1-97.415235-23.073826 214.28621 214.28621 0 0 1-76.184584-64.03328l-108.952147 106.289783c60.346929 71.132918 136.941107 126.359915 284.668204 126.359915 128.339622 0 265.28073-72.156905 265.28073-219.815735 2.116238-154.075812-116.461381-183.771416-214.627538-203.978081zM3771.068652 701.090001c-75.501927 0-154.075812-61.575712-154.075812-196.605378 0-119.942934 73.249157-186.911641 149.843336-186.911641 25.940987-0.682658 51.47238 6.007387 73.522219 19.387475 22.049839 13.448354 39.594139 32.904095 50.51666 55.97792l138.03336-90.24733c-69.01668-103.013026-151.003853-146.566579-264.188478-146.566579-207.050039 0-319.210677 158.308289-319.210677 349.520673 0 200.701324 123.970614 357.917361 317.026173 357.917361 135.848855 0 200.564792-46.762043 270.673724-146.566579L3894.01528 624.632354c-27.98896 44.577539-58.23069 76.457647-122.878362 76.457647zM4489.360942 172.098655v248.623885h-208.210557V172.030389h-180.085066v675.626192h180.153331V581.078802h208.142292v266.646044H4669.377742V172.030389h-180.085066z" fill="#EA0016" p-id="7463"></path><path d="M519.77547 0.000683c-102.808229 0-203.295423 30.036933-288.76415 86.287916A513.768083 513.768083 0 0 0 39.594139 316.071135a504.893535 504.893535 0 0 0-29.627339 295.795523 509.672138 509.672138 0 0 0 142.265837 262.140505 522.233037 522.233037 0 0 0 266.168184 140.149598c100.828522 19.797069 205.343395 9.557206 300.301063-29.149478a518.205357 518.205357 0 0 0 233.26409-188.55002A506.531913 506.531913 0 0 0 1039.550939 511.993856c0-135.848855-54.749137-266.031653-152.232637-362.013306A523.871415 523.871415 0 0 0 519.77547 0.000683z m0 976.200317c-93.182758 0-184.317542-27.306303-261.799176-78.232557a465.708991 465.708991 0 0 1-173.599819-208.347089 457.721897 457.721897 0 0 1-26.760177-268.216157 462.090905 462.090905 0 0 1 128.954014-237.633098A473.491287 473.491287 0 0 1 427.821496 56.661261a477.860295 477.860295 0 0 1 272.312102 26.418847 469.73667 469.73667 0 0 1 211.487314 170.937454A459.223744 459.223744 0 0 1 991.013986 511.993856a460.657325 460.657325 0 0 1-138.033359 328.221757 474.924868 474.924868 0 0 1-333.136892 135.917121z" fill="#606061" p-id="7464"></path><path d="M734.334742 192.305319h-35.498193v175.238196h-357.029906V192.305319h-36.590446A385.291929 385.291929 0 0 0 176.944841 330.406944a378.53362 378.53362 0 0 0 0 363.105558 385.291929 385.291929 0 0 0 128.271356 138.169892h36.658711V656.444197h356.893375v175.306462h35.498193a385.360195 385.360195 0 0 0 128.339623-138.169891 378.53362 378.53362 0 0 0 0-363.173824 385.360195 385.360195 0 0 0-128.339623-138.169891zM292.177438 762.802245a335.662724 335.662724 0 0 1-84.444741-113.321155 331.088919 331.088919 0 0 1 0-274.76967 335.662724 335.662724 0 0 1 84.444741-113.321156v501.411981z m406.522579-155.099798H341.874908V415.329545h356.893375v192.372902z m48.536953 154.007546V261.321998a336.550179 336.550179 0 0 1 83.625552 113.184625 331.976374 331.976374 0 0 1 0 273.813949 336.550179 336.550179 0 0 1-83.625552 113.25289v0.136531z" fill="#606061" p-id="7465"></path></svg>