<?xml version="1.0" standalone="no"?><!DOCTYPE svg PUBLIC "-//W3C//DTD SVG 1.1//EN" "http://www.w3.org/Graphics/SVG/1.1/DTD/svg11.dtd"><svg t="1764906835996" class="icon" viewBox="0 0 1024 1024" version="1.1" xmlns="http://www.w3.org/2000/svg" p-id="13791" xmlns:xlink="http://www.w3.org/1999/xlink" width="200" height="200"><path d="M385.024 651.264c-18.432-1.024-32.768 13.312-33.792 31.744-1.024 18.432 13.312 32.768 31.744 33.792h1.024c17.408 0 31.744-13.312 32.768-31.744 0-18.432-14.336-33.792-31.744-33.792z m-2.048 54.272c-12.288 0-22.528-11.264-21.504-23.552 0-12.288 10.24-21.504 22.528-21.504 12.288 0 22.528 10.24 22.528 23.552-1.024 13.312-11.264 22.528-23.552 21.504z" p-id="13792"></path><path d="M430.08 711.68c2.048-4.096 4.096-7.168 5.12-11.264l8.192-1.024c4.096 0 6.144-3.072 6.144-7.168v-14.336c0-4.096-2.048-7.168-6.144-7.168l-8.192-1.024c-1.024-4.096-2.048-7.168-4.096-11.264l6.144-7.168c2.048-3.072 2.048-7.168 0-9.216l-9.216-10.24c-2.048-3.072-6.144-3.072-9.216-1.024l-7.168 5.12c-3.072-2.048-6.144-3.072-10.24-5.12l-2.048-7.168c0-4.096-3.072-6.144-7.168-6.144h-14.336c-4.096 0-7.168 2.048-7.168 6.144l-1.024 9.216c-4.096 1.024-7.168 2.048-11.264 4.096l-7.168-6.144c-3.072-2.048-7.168-2.048-9.216 0l-10.24 9.216c-3.072 2.048-3.072 6.144-1.024 9.216l5.12 7.168c-2.048 3.072-4.096 7.168-5.12 11.264l-9.216 1.024c-4.096 0-6.144 3.072-6.144 7.168v14.336c0 4.096 2.048 7.168 6.144 7.168l8.192 1.024c1.024 4.096 2.048 8.192 4.096 12.288l-5.12 6.144c-2.048 3.072-2.048 7.168 0 9.216l9.216 10.24c2.048 3.072 6.144 3.072 9.216 1.024l6.144-5.12c3.072 2.048 7.168 4.096 10.24 5.12h1.024l1.024 9.216c0 3.072 2.048 5.12 5.12 5.12l15.36 1.024c3.072 0 6.144-3.072 7.168-6.144l1.024-7.168c4.096-1.024 8.192-3.072 12.288-4.096l6.144 5.12c3.072 2.048 7.168 2.048 9.216 0l10.24-9.216c3.072-2.048 3.072-6.144 1.024-9.216l-3.072-10.24z m-4.096-16.384c-1.024 3.072-1.024 6.144-6.144 14.336-1.024 2.048-1.024 4.096 0 6.144l5.12 7.168-6.144 6.144-6.144-6.144c-2.048-1.024-5.12-1.024-7.168 0-3.072 2.048-7.168 4.096-11.264 5.12l-3.072-1.024c-2.048 0-4.096 2.048-4.096 4.096l-1.024 8.192h-8.192l-1.024-8.192c0-2.048-2.048-4.096-4.096-5.12H368.64c-4.096-1.024-8.192-3.072-11.264-6.144-2.048-1.024-4.096-1.024-6.144 0l-7.168 5.12-6.144-6.144 6.144-7.168c1.024-2.048 2.048-4.096 1.024-6.144-4.096-7.168-5.12-14.336-5.12-15.36 0-2.048-2.048-4.096-4.096-4.096h-9.216v-8.192l9.216-1.024c2.048 0 4.096-2.048 4.096-4.096 1.024-5.12 4.096-10.24 7.168-14.336 1.024-2.048 1.024-4.096 0-6.144l-5.12-7.168 6.144-6.144 7.168 6.144c2.048 1.024 4.096 2.048 6.144 1.024 4.096-2.048 9.216-4.096 14.336-5.12 2.048 0 4.096-2.048 4.096-4.096l1.024-10.24h8.192l1.024 10.24c0 2.048 2.048 4.096 4.096 5.12 3.072 1.024 6.144 2.048 10.24 4.096 1.024 0 2.048 1.024 2.048 1.024l2.048 1.024c2.048 1.024 4.096 1.024 6.144 0l8.192-6.144 6.144 6.144-7.168 7.168c-1.024 2.048-1.024 5.12 0 7.168 0 1.024 1.024 1.024 1.024 2.048 2.048 4.096 3.072 8.192 4.096 12.288 0 2.048 2.048 4.096 4.096 4.096l9.216 1.024v8.192l-9.216 1.024c-2.048-1.024-4.096 2.048-5.12 4.096zM454.656 860.16c4.096 0 7.168-3.072 8.192-7.168v-11.264h11.264c4.096 0 7.168-3.072 8.192-7.168 0-4.096-3.072-7.168-7.168-8.192h-11.264v-11.264c0-4.096-3.072-7.168-7.168-8.192-4.096 0-7.168 3.072-8.192 7.168v11.264h-11.264c-4.096 0-7.168 3.072-8.192 7.168 0 4.096 3.072 7.168 7.168 8.192h11.264v11.264c0 4.096 3.072 8.192 7.168 8.192zM105.472 331.776c4.096 0 7.168-3.072 8.192-7.168v-11.264h11.264c4.096 0 7.168-3.072 8.192-7.168 0-4.096-3.072-7.168-7.168-8.192h-11.264V286.72c0-4.096-3.072-7.168-7.168-8.192-4.096 0-7.168 3.072-8.192 7.168V296.96H88.064c-4.096 0-7.168 3.072-8.192 7.168 0 4.096 3.072 7.168 7.168 8.192h11.264v11.264c0 5.12 3.072 8.192 7.168 8.192zM976.896 580.608h-11.264v-11.264c0-4.096-3.072-7.168-7.168-8.192-4.096 0-7.168 3.072-8.192 7.168v11.264h-11.264c-4.096 0-7.168 3.072-8.192 7.168 0 4.096 3.072 7.168 7.168 8.192h11.264v11.264c0 4.096 3.072 7.168 7.168 8.192 4.096 0 7.168-3.072 8.192-7.168v-11.264h11.264c4.096 0 7.168-3.072 8.192-7.168 0-5.12-3.072-8.192-7.168-8.192zM942.08 189.44c-4.096 0-7.168 3.072-8.192 7.168v11.264h-11.264c-4.096 0-7.168 3.072-8.192 7.168 0 4.096 3.072 7.168 7.168 8.192h11.264v11.264c0 4.096 3.072 7.168 7.168 8.192 4.096 0 7.168-3.072 8.192-7.168v-11.264h11.264c4.096 0 7.168-3.072 8.192-7.168 0-4.096-3.072-7.168-7.168-8.192h-11.264v-11.264c0-4.096-3.072-8.192-7.168-8.192zM50.176 791.552h158.72c6.144 0 10.24-4.096 10.24-10.24s-4.096-10.24-10.24-10.24H50.176c-6.144 0-10.24 4.096-10.24 10.24s5.12 10.24 10.24 10.24zM982.016 781.312c0-6.144-4.096-10.24-10.24-10.24H821.248c-6.144 0-10.24 4.096-10.24 10.24s4.096 10.24 10.24 10.24h150.528c6.144 0 10.24-4.096 10.24-10.24z" p-id="13793"></path><path d="M741.376 685.056h34.816c27.648 0 51.2-22.528 51.2-51.2v-69.632c0-7.168 5.12-13.312 12.288-13.312h11.264c21.504 0 33.792-23.552 22.528-40.96l-40.96-66.56c-3.072-5.12-5.12-12.288-5.12-18.432C827.392 280.576 710.656 163.84 566.272 163.84c-64.512 0-126.976 24.576-175.104 68.608h-65.536c-10.24 0-20.48 5.12-25.6 13.312l-62.464 88.064c-2.048 3.072-6.144 5.12-9.216 5.12h-72.704c-6.144 0-10.24 4.096-10.24 10.24s4.096 10.24 10.24 10.24h72.704c10.24 0 20.48-5.12 25.6-13.312l62.464-88.064c2.048-3.072 6.144-5.12 9.216-5.12h202.752l25.6 11.264c0 2.048-1.024 3.072-1.024 5.12 0 22.528 18.432 40.96 40.96 40.96s40.96-18.432 40.96-40.96-18.432-40.96-40.96-40.96c-13.312 0-25.6 6.144-32.768 16.384l-25.6-11.264c-3.072-1.024-7.168-2.048-11.264-2.048h-102.4c94.208-70.656 227.328-63.488 313.344 22.528 45.056 45.056 70.656 105.472 70.656 169.984 0 10.24 3.072 21.504 8.192 29.696l40.96 66.56c2.048 3.072 1.024 6.144 0 6.144-1.024 1.024-2.048 3.072-5.12 3.072h-10.24c-18.432 0-32.768 15.36-32.768 33.792v69.632c0 16.384-13.312 30.72-30.72 30.72h-34.816c-18.432 0-33.792 15.36-33.792 33.792v73.728H504.832c-1.024-22.528-6.144-45.056-14.336-66.56 1.024-7.168 2.048-14.336 2.048-21.504 0-59.392-49.152-108.544-108.544-108.544h-4.096c-6.144-7.168-11.264-14.336-15.36-22.528h124.928l48.128 76.8c5.12 10.24 15.36 16.384 26.624 16.384h31.744c4.096 17.408 20.48 30.72 39.936 30.72 22.528 0 40.96-18.432 40.96-40.96s-18.432-40.96-40.96-40.96c-19.456 0-34.816 13.312-39.936 30.72h-31.744c-4.096 0-7.168-2.048-10.24-5.12l-40.96-66.56h46.08c4.096 17.408 20.48 30.72 39.936 30.72 22.528 0 40.96-18.432 40.96-40.96s-18.432-40.96-40.96-40.96c-19.456 0-34.816 13.312-39.936 30.72H324.608c-4.096 0-7.168-2.048-9.216-5.12l-62.464-88.064c-6.144-8.192-15.36-13.312-25.6-13.312h-72.704c-6.144 0-10.24 4.096-10.24 10.24s4.096 10.24 10.24 10.24h72.704c4.096 0 7.168 2.048 9.216 5.12l62.464 88.064c6.144 8.192 15.36 13.312 25.6 13.312h14.336c5.12 9.216 10.24 17.408 16.384 25.6-47.104 12.288-80.896 54.272-80.896 104.448 0 35.84 17.408 68.608 45.056 88.064h-47.104c-6.144 0-10.24 4.096-10.24 10.24s4.096 10.24 10.24 10.24H757.76c6.144 0 10.24-4.096 10.24-10.24s-4.096-10.24-10.24-10.24h-30.72v-73.728c1.024-7.168 7.168-12.288 14.336-12.288zM594.944 249.856c11.264 0 20.48 9.216 20.48 20.48s-9.216 20.48-20.48 20.48-20.48-9.216-20.48-20.48 9.216-20.48 20.48-20.48z m40.96 364.544c11.264 0 20.48 9.216 20.48 20.48s-9.216 20.48-20.48 20.48-20.48-9.216-20.48-20.48 9.216-20.48 20.48-20.48z m-36.864-92.16c11.264 0 20.48 9.216 20.48 20.48s-9.216 20.48-20.48 20.48-20.48-9.216-20.48-20.48 9.216-20.48 20.48-20.48zM295.936 684.032c0-48.128 39.936-88.064 88.064-88.064 48.128 0 88.064 39.936 88.064 88.064 0 48.128-39.936 88.064-88.064 88.064-49.152-1.024-88.064-39.936-88.064-88.064z m150.528 87.04c13.312-9.216 23.552-21.504 31.744-35.84 3.072 11.264 5.12 23.552 5.12 35.84h-36.864z" p-id="13794"></path><path d="M354.304 319.488h60.416c4.096 17.408 20.48 30.72 39.936 30.72 22.528 0 40.96-18.432 40.96-40.96s-18.432-40.96-40.96-40.96c-19.456 0-34.816 13.312-39.936 30.72h-60.416c-11.264 0-21.504 5.12-26.624 14.336l-49.152 77.824c-2.048 3.072-2.048 7.168 0 11.264l50.176 73.728c6.144 9.216 15.36 14.336 26.624 14.336h306.176c5.12 16.384 20.48 28.672 38.912 28.672 22.528 0 40.96-18.432 40.96-40.96s-18.432-40.96-40.96-40.96c-19.456 0-35.84 14.336-39.936 32.768H521.216l30.72-51.2c2.048-3.072 6.144-5.12 10.24-5.12h12.288c4.096 17.408 20.48 30.72 39.936 30.72 22.528 0 40.96-18.432 40.96-40.96s-18.432-40.96-40.96-40.96c-19.456 0-34.816 13.312-39.936 30.72h-12.288c-11.264 0-21.504 6.144-27.648 15.36l-36.864 61.44h-143.36c-4.096 0-7.168-2.048-9.216-5.12l-38.912-57.344h91.136c4.096 16.384 19.456 28.672 37.888 28.672 21.504 0 38.912-17.408 38.912-38.912S456.704 358.4 435.2 358.4c-18.432 0-32.768 12.288-37.888 28.672h-92.16l38.912-61.44c2.048-4.096 6.144-6.144 10.24-6.144z m100.352-30.72c11.264 0 20.48 9.216 20.48 20.48s-9.216 20.48-20.48 20.48-20.48-9.216-20.48-20.48 9.216-20.48 20.48-20.48z m158.72 93.184c11.264 0 20.48 9.216 20.48 20.48s-9.216 20.48-20.48 20.48-20.48-9.216-20.48-20.48 9.216-20.48 20.48-20.48z m86.016 75.776c11.264 0 20.48 9.216 20.48 20.48s-9.216 20.48-20.48 20.48-20.48-9.216-20.48-20.48 9.216-20.48 20.48-20.48z m-265.216-79.872c10.24 0 18.432 8.192 18.432 18.432s-8.192 18.432-18.432 18.432-18.432-8.192-18.432-18.432 8.192-18.432 18.432-18.432z" p-id="13795"></path></svg>