<?xml version="1.0" standalone="no"?><!DOCTYPE svg PUBLIC "-//W3C//DTD SVG 1.1//EN" "http://www.w3.org/Graphics/SVG/1.1/DTD/svg11.dtd"><svg t="1764908110653" class="icon" viewBox="0 0 1024 1024" version="1.1" xmlns="http://www.w3.org/2000/svg" p-id="15644" xmlns:xlink="http://www.w3.org/1999/xlink" width="200" height="200"><path d="M808.494545 904.378182h-498.036363c-21.876364 0-39.563636-17.687273-39.563637-39.563637v-367.70909c0-21.876364 17.687273-39.563636 39.563637-39.563637h498.036363c21.876364 0 39.563636 17.687273 39.563637 39.563637v367.70909c0 21.876364-17.687273 39.563636-39.563637 39.563637z" fill="#BBEBA1" p-id="15645"></path><path d="M678.632727 538.530909h-238.778182c-30.72 0-55.854545-25.134545-55.854545-55.854545V218.763636c0-30.72 25.134545-55.854545 55.854545-55.854545h238.778182c30.72 0 55.854545 25.134545 55.854546 55.854545v263.912728c0 30.72-25.134545 55.854545-55.854546 55.854545zM352.349091 958.836364c-13.032727 0-23.272727-10.24-23.272727-23.272728v-31.185454c0-13.032727 10.24-23.272727 23.272727-23.272727s23.272727 10.24 23.272727 23.272727v31.185454c0 13.032727-10.24 23.272727-23.272727 23.272728zM757.294545 958.836364c-13.032727 0-23.272727-10.24-23.272727-23.272728v-31.185454c0-13.032727 10.24-23.272727 23.272727-23.272727s23.272727 10.24 23.272728 23.272727v31.185454c0 13.032727-10.24 23.272727-23.272728 23.272728z" fill="#BBEBA1" p-id="15646"></path><path d="M734.021818 857.832727h-498.036363c-34.443636 0-62.836364-28.392727-62.836364-62.836363v-367.709091c0-34.443636 28.392727-62.836364 62.836364-62.836364h498.036363c34.443636 0 62.836364 28.392727 62.836364 62.836364v367.709091c0 34.443636-28.392727 62.836364-62.836364 62.836363z m-498.036363-446.836363c-8.843636 0-16.290909 7.447273-16.29091 16.290909v367.709091c0 8.843636 7.447273 16.290909 16.29091 16.290909h498.036363c8.843636 0 16.290909-7.447273 16.290909-16.290909v-367.709091c0-8.843636-7.447273-16.290909-16.290909-16.290909h-498.036363z" fill="#353E43" p-id="15647"></path><path d="M332.8 381.672727h-46.545455v-232.727272c0-43.752727 35.374545-79.127273 79.127273-79.127273h238.778182c43.752727 0 79.127273 35.374545 79.127273 79.127273v226.676363h-46.545455V148.945455c0-18.152727-14.429091-32.581818-32.581818-32.581819h-238.778182c-18.152727 0-32.581818 14.429091-32.581818 32.581819v232.727272zM277.876364 898.327273c-13.032727 0-23.272727-10.24-23.272728-23.272728v-31.185454c0-13.032727 10.24-23.272727 23.272728-23.272727s23.272727 10.24 23.272727 23.272727v31.185454c0 13.032727-10.24 23.272727-23.272727 23.272728zM682.821818 898.327273c-13.032727 0-23.272727-10.24-23.272727-23.272728v-31.185454c0-13.032727 10.24-23.272727 23.272727-23.272727s23.272727 10.24 23.272727 23.272727v31.185454c0 13.032727-10.24 23.272727-23.272727 23.272728zM357.003636 752.64c-13.032727 0-23.272727-10.24-23.272727-23.272727v-239.243637c0-13.032727 10.24-23.272727 23.272727-23.272727s23.272727 10.24 23.272728 23.272727v239.243637c0 13.032727-10.24 23.272727-23.272728 23.272727zM603.694545 752.64c-13.032727 0-23.272727-10.24-23.272727-23.272727v-239.243637c0-13.032727 10.24-23.272727 23.272727-23.272727s23.272727 10.24 23.272728 23.272727v239.243637c0 13.032727-10.24 23.272727-23.272728 23.272727z" fill="#353E43" p-id="15648"></path></svg>